<svg xmlns="http://www.w3.org/2000/svg" version="1.1" xmlns:xlink="http://www.w3.org/1999/xlink" xmlns:svgjs="http://svgjs.dev/svgjs" width="1440" height="560" preserveAspectRatio="none" viewBox="0 0 1440 560"><g mask="url(&quot;#SvgjsMask1019&quot;)" fill="none"><rect width="1440" height="560" x="0" y="0" fill="rgba(208, 230, 215, 1)"></rect><path d="M513.034,118.183C529.772,118.357,542.849,105.378,551.033,90.776C559.004,76.553,560.974,59.93,553.919,45.232C545.736,28.183,531.942,11.301,513.034,11.611C494.431,11.916,482.287,29.683,474.406,46.536C467.822,60.617,469.002,76.318,476.378,90C484.217,104.54,496.516,118.011,513.034,118.183" fill="rgba(168, 221, 186, 0.53)" class="triangle-float3"></path><path d="M731.8791942177871 500.0396446827194L821.842622504146 517.5267636841107 839.3297415055374 427.56333539775187 749.3663132191784 410.07621639636056z" fill="rgba(168, 221, 186, 0.53)" class="triangle-float1"></path><path d="M976.563,573.902C1009.035,573.785,1029.763,542.572,1044.685,513.731C1058.128,487.749,1062.991,458.216,1049.971,432.019C1035.352,402.604,1009.353,378.593,976.563,376.664C940.537,374.545,902.675,390.143,886.499,422.402C871.411,452.49,890.384,485.293,907.584,514.226C924.236,542.236,943.977,574.02,976.563,573.902" fill="rgba(168, 221, 186, 0.53)" class="triangle-float1"></path><path d="M1050.8334252746197 475.1110525292233L1015.713053710625 367.02166314723905 907.6236643286408 402.1420347112337 942.7440358926355 510.2314240932179z" fill="rgba(168, 221, 186, 0.53)" class="triangle-float2"></path><path d="M176.13533062114496 179.01643764617015L170.32745586100225 112.63212536985202 73.65492482659643 154.53609364822512z" fill="rgba(168, 221, 186, 0.53)" class="triangle-float1"></path><path d="M1358.957,111.496C1381.833,112.828,1405.355,102.583,1416.082,82.334C1426.308,63.032,1418.218,40.33,1406.386,21.969C1395.699,5.384,1378.681,-5.84,1358.957,-6.317C1338.346,-6.815,1317.522,1.625,1307.382,19.576C1297.379,37.285,1302.343,58.554,1312.295,76.292C1322.513,94.504,1338.109,110.282,1358.957,111.496" fill="rgba(168, 221, 186, 0.53)" class="triangle-float3"></path><path d="M1412.7376989887944-27.50141289407976L1329.2098568343383-42.22962510626822 1314.4816446221498 41.29821704818775 1398.0094867766059 56.02642926037622z" fill="rgba(168, 221, 186, 0.53)" class="triangle-float2"></path><path d="M382.922,219.378C423.994,217.519,465.477,203.751,485.943,168.093C506.333,132.569,496.261,90.385,478.004,53.719C456.877,11.29,430.309,-37.79,382.922,-38.805C334.625,-39.84,303.97,7.258,280.512,49.488C257.96,90.088,238.399,138.436,262.376,178.211C285.87,217.186,337.46,221.435,382.922,219.378" fill="rgba(168, 221, 186, 0.53)" class="triangle-float3"></path><path d="M109.88926730756498 249.24887582327813L114.51944059052686 337.5978451233402 244.72780789913907 286.47810054886634z" fill="rgba(168, 221, 186, 0.53)" class="triangle-float2"></path></g><defs><mask id="SvgjsMask1019"><rect width="1440" height="560" fill="#ffffff"></rect></mask><style>
                @keyframes float1 {
                    0%{transform: translate(0, 0)}
                    50%{transform: translate(-10px, 0)}
                    100%{transform: translate(0, 0)}
                }

                .triangle-float1 {
                    animation: float1 5s infinite;
                }

                @keyframes float2 {
                    0%{transform: translate(0, 0)}
                    50%{transform: translate(-5px, -5px)}
                    100%{transform: translate(0, 0)}
                }

                .triangle-float2 {
                    animation: float2 4s infinite;
                }

                @keyframes float3 {
                    0%{transform: translate(0, 0)}
                    50%{transform: translate(0, -10px)}
                    100%{transform: translate(0, 0)}
                }

                .triangle-float3 {
                    animation: float3 6s infinite;
                }
            </style></defs></svg>